<mxfile host="app.diagrams.net" modified="2023-06-14T23:46:57.482Z" agent="Mozilla/5.0 (Macintosh; Intel Mac OS X 10.15; rv:109.0) Gecko/20100101 Firefox/114.0" etag="14P6QMFLkoO70nRb4QJ6" version="21.3.8" type="github">
  <diagram name="Page-1" id="90a13364-a465-7bf4-72fc-28e22215d7a0">
    <mxGraphModel dx="2931" dy="2057" grid="1" gridSize="10" guides="1" tooltips="1" connect="1" arrows="1" fold="1" page="1" pageScale="1.5" pageWidth="1169" pageHeight="826" background="none" math="0" shadow="0">
      <root>
        <mxCell id="0" style=";html=1;" />
        <mxCell id="1" style=";html=1;" parent="0" />
        <mxCell id="O2bcDgxOR7J80k1aE8_S-146" value="" style="group" vertex="1" connectable="0" parent="1">
          <mxGeometry x="60" y="10" width="2040" height="876" as="geometry" />
        </mxCell>
        <mxCell id="r9dUmVedtfp5cOGke26F-2" value="" style="rounded=0;whiteSpace=wrap;html=1;fillColor=#DEFFF7;opacity=50;movable=1;resizable=1;rotatable=1;deletable=1;editable=1;locked=0;connectable=1;" parent="O2bcDgxOR7J80k1aE8_S-146" vertex="1">
          <mxGeometry y="346" width="1790" height="500" as="geometry" />
        </mxCell>
        <mxCell id="YzKj1ZApkS9-Ht2kz3JE-27" style="edgeStyle=orthogonalEdgeStyle;rounded=0;orthogonalLoop=1;jettySize=auto;html=1;exitX=0.5;exitY=1;exitDx=0;exitDy=0;exitPerimeter=0;" parent="O2bcDgxOR7J80k1aE8_S-146" edge="1">
          <mxGeometry relative="1" as="geometry">
            <mxPoint x="265" y="406" as="sourcePoint" />
            <mxPoint x="265" y="406" as="targetPoint" />
          </mxGeometry>
        </mxCell>
        <mxCell id="YzKj1ZApkS9-Ht2kz3JE-81" value="" style="group" parent="O2bcDgxOR7J80k1aE8_S-146" vertex="1" connectable="0">
          <mxGeometry x="150" width="180" height="392" as="geometry" />
        </mxCell>
        <mxCell id="r9dUmVedtfp5cOGke26F-4" value="&lt;pre&gt;&lt;font style=&quot;font-size: 34px;&quot;&gt;&lt;b&gt;Ice Sheet &lt;/b&gt;&lt;/font&gt;&lt;/pre&gt;" style="text;strokeColor=none;align=center;fillColor=none;html=1;verticalAlign=middle;whiteSpace=wrap;rounded=0;fontColor=#66B2FF;" parent="O2bcDgxOR7J80k1aE8_S-146" vertex="1">
          <mxGeometry x="120" y="726" width="190" height="90" as="geometry" />
        </mxCell>
        <mxCell id="O2bcDgxOR7J80k1aE8_S-128" value="" style="group" vertex="1" connectable="0" parent="O2bcDgxOR7J80k1aE8_S-146">
          <mxGeometry x="1320" y="406" width="180" height="410" as="geometry" />
        </mxCell>
        <mxCell id="O2bcDgxOR7J80k1aE8_S-75" value="" style="group" vertex="1" connectable="0" parent="O2bcDgxOR7J80k1aE8_S-128">
          <mxGeometry x="60" y="150" width="30" height="210" as="geometry" />
        </mxCell>
        <mxCell id="O2bcDgxOR7J80k1aE8_S-76" value="" style="group" vertex="1" connectable="0" parent="O2bcDgxOR7J80k1aE8_S-75">
          <mxGeometry y="150" width="30" height="60" as="geometry" />
        </mxCell>
        <mxCell id="O2bcDgxOR7J80k1aE8_S-77" value="" style="shape=cylinder3;whiteSpace=wrap;html=1;boundedLbl=1;backgroundOutline=1;size=15;container=1;" vertex="1" parent="O2bcDgxOR7J80k1aE8_S-76">
          <mxGeometry y="19.243360535874324" width="30" height="40.75663946412565" as="geometry" />
        </mxCell>
        <mxCell id="O2bcDgxOR7J80k1aE8_S-78" value="" style="shape=cylinder3;whiteSpace=wrap;html=1;boundedLbl=1;backgroundOutline=1;size=15;" vertex="1" parent="O2bcDgxOR7J80k1aE8_S-76">
          <mxGeometry width="30" height="40.75663946412565" as="geometry" />
        </mxCell>
        <mxCell id="O2bcDgxOR7J80k1aE8_S-79" value="" style="group" vertex="1" connectable="0" parent="O2bcDgxOR7J80k1aE8_S-75">
          <mxGeometry y="100" width="30" height="60" as="geometry" />
        </mxCell>
        <mxCell id="O2bcDgxOR7J80k1aE8_S-80" value="" style="shape=cylinder3;whiteSpace=wrap;html=1;boundedLbl=1;backgroundOutline=1;size=15;container=1;" vertex="1" parent="O2bcDgxOR7J80k1aE8_S-79">
          <mxGeometry y="19.243360535874324" width="30" height="40.75663946412565" as="geometry" />
        </mxCell>
        <mxCell id="O2bcDgxOR7J80k1aE8_S-81" value="" style="shape=cylinder3;whiteSpace=wrap;html=1;boundedLbl=1;backgroundOutline=1;size=15;" vertex="1" parent="O2bcDgxOR7J80k1aE8_S-79">
          <mxGeometry width="30" height="40.75663946412565" as="geometry" />
        </mxCell>
        <mxCell id="O2bcDgxOR7J80k1aE8_S-82" value="" style="group" vertex="1" connectable="0" parent="O2bcDgxOR7J80k1aE8_S-75">
          <mxGeometry y="50" width="30" height="60" as="geometry" />
        </mxCell>
        <mxCell id="O2bcDgxOR7J80k1aE8_S-83" value="" style="shape=cylinder3;whiteSpace=wrap;html=1;boundedLbl=1;backgroundOutline=1;size=15;container=1;" vertex="1" parent="O2bcDgxOR7J80k1aE8_S-82">
          <mxGeometry y="19.243360535874324" width="30" height="40.75663946412565" as="geometry" />
        </mxCell>
        <mxCell id="O2bcDgxOR7J80k1aE8_S-84" value="" style="shape=cylinder3;whiteSpace=wrap;html=1;boundedLbl=1;backgroundOutline=1;size=15;" vertex="1" parent="O2bcDgxOR7J80k1aE8_S-82">
          <mxGeometry width="30" height="40.75663946412565" as="geometry" />
        </mxCell>
        <mxCell id="O2bcDgxOR7J80k1aE8_S-85" value="" style="group" vertex="1" connectable="0" parent="O2bcDgxOR7J80k1aE8_S-75">
          <mxGeometry width="30" height="60" as="geometry" />
        </mxCell>
        <mxCell id="O2bcDgxOR7J80k1aE8_S-86" value="" style="shape=cylinder3;whiteSpace=wrap;html=1;boundedLbl=1;backgroundOutline=1;size=15;container=1;" vertex="1" parent="O2bcDgxOR7J80k1aE8_S-85">
          <mxGeometry y="19.243360535874324" width="30" height="40.75663946412565" as="geometry" />
        </mxCell>
        <mxCell id="O2bcDgxOR7J80k1aE8_S-87" value="" style="shape=cylinder3;whiteSpace=wrap;html=1;boundedLbl=1;backgroundOutline=1;size=15;" vertex="1" parent="O2bcDgxOR7J80k1aE8_S-85">
          <mxGeometry width="30" height="40.75663946412565" as="geometry" />
        </mxCell>
        <mxCell id="O2bcDgxOR7J80k1aE8_S-134" value="" style="group;strokeColor=none;opacity=60;" vertex="1" connectable="0" parent="O2bcDgxOR7J80k1aE8_S-128">
          <mxGeometry width="180" height="290" as="geometry" />
        </mxCell>
        <mxCell id="O2bcDgxOR7J80k1aE8_S-21" value="" style="group" vertex="1" connectable="0" parent="O2bcDgxOR7J80k1aE8_S-134">
          <mxGeometry y="60" width="30" height="210" as="geometry" />
        </mxCell>
        <mxCell id="O2bcDgxOR7J80k1aE8_S-22" value="" style="group" vertex="1" connectable="0" parent="O2bcDgxOR7J80k1aE8_S-21">
          <mxGeometry y="150" width="30" height="60" as="geometry" />
        </mxCell>
        <mxCell id="O2bcDgxOR7J80k1aE8_S-23" value="" style="shape=cylinder3;whiteSpace=wrap;html=1;boundedLbl=1;backgroundOutline=1;size=15;container=1;" vertex="1" parent="O2bcDgxOR7J80k1aE8_S-22">
          <mxGeometry y="19.243360535874324" width="30" height="40.75663946412565" as="geometry" />
        </mxCell>
        <mxCell id="O2bcDgxOR7J80k1aE8_S-24" value="" style="shape=cylinder3;whiteSpace=wrap;html=1;boundedLbl=1;backgroundOutline=1;size=15;" vertex="1" parent="O2bcDgxOR7J80k1aE8_S-22">
          <mxGeometry width="30" height="40.75663946412565" as="geometry" />
        </mxCell>
        <mxCell id="O2bcDgxOR7J80k1aE8_S-25" value="" style="group" vertex="1" connectable="0" parent="O2bcDgxOR7J80k1aE8_S-21">
          <mxGeometry y="100" width="30" height="60" as="geometry" />
        </mxCell>
        <mxCell id="O2bcDgxOR7J80k1aE8_S-26" value="" style="shape=cylinder3;whiteSpace=wrap;html=1;boundedLbl=1;backgroundOutline=1;size=15;container=1;" vertex="1" parent="O2bcDgxOR7J80k1aE8_S-25">
          <mxGeometry y="19.243360535874324" width="30" height="40.75663946412565" as="geometry" />
        </mxCell>
        <mxCell id="O2bcDgxOR7J80k1aE8_S-27" value="" style="shape=cylinder3;whiteSpace=wrap;html=1;boundedLbl=1;backgroundOutline=1;size=15;" vertex="1" parent="O2bcDgxOR7J80k1aE8_S-25">
          <mxGeometry width="30" height="40.75663946412565" as="geometry" />
        </mxCell>
        <mxCell id="O2bcDgxOR7J80k1aE8_S-28" value="" style="group" vertex="1" connectable="0" parent="O2bcDgxOR7J80k1aE8_S-21">
          <mxGeometry y="50" width="30" height="60" as="geometry" />
        </mxCell>
        <mxCell id="O2bcDgxOR7J80k1aE8_S-29" value="" style="shape=cylinder3;whiteSpace=wrap;html=1;boundedLbl=1;backgroundOutline=1;size=15;container=1;" vertex="1" parent="O2bcDgxOR7J80k1aE8_S-28">
          <mxGeometry y="19.243360535874324" width="30" height="40.75663946412565" as="geometry" />
        </mxCell>
        <mxCell id="O2bcDgxOR7J80k1aE8_S-30" value="" style="shape=cylinder3;whiteSpace=wrap;html=1;boundedLbl=1;backgroundOutline=1;size=15;" vertex="1" parent="O2bcDgxOR7J80k1aE8_S-28">
          <mxGeometry width="30" height="40.75663946412565" as="geometry" />
        </mxCell>
        <mxCell id="O2bcDgxOR7J80k1aE8_S-31" value="" style="group" vertex="1" connectable="0" parent="O2bcDgxOR7J80k1aE8_S-21">
          <mxGeometry width="30" height="60" as="geometry" />
        </mxCell>
        <mxCell id="O2bcDgxOR7J80k1aE8_S-32" value="" style="shape=cylinder3;whiteSpace=wrap;html=1;boundedLbl=1;backgroundOutline=1;size=15;container=1;" vertex="1" parent="O2bcDgxOR7J80k1aE8_S-31">
          <mxGeometry y="19.243360535874324" width="30" height="40.75663946412565" as="geometry" />
        </mxCell>
        <mxCell id="O2bcDgxOR7J80k1aE8_S-33" value="" style="shape=cylinder3;whiteSpace=wrap;html=1;boundedLbl=1;backgroundOutline=1;size=15;" vertex="1" parent="O2bcDgxOR7J80k1aE8_S-31">
          <mxGeometry width="30" height="40.75663946412565" as="geometry" />
        </mxCell>
        <mxCell id="O2bcDgxOR7J80k1aE8_S-102" value="" style="group" vertex="1" connectable="0" parent="O2bcDgxOR7J80k1aE8_S-134">
          <mxGeometry x="90" width="30" height="210" as="geometry" />
        </mxCell>
        <mxCell id="O2bcDgxOR7J80k1aE8_S-103" value="" style="group" vertex="1" connectable="0" parent="O2bcDgxOR7J80k1aE8_S-102">
          <mxGeometry y="150" width="30" height="60" as="geometry" />
        </mxCell>
        <mxCell id="O2bcDgxOR7J80k1aE8_S-104" value="" style="shape=cylinder3;whiteSpace=wrap;html=1;boundedLbl=1;backgroundOutline=1;size=15;container=1;" vertex="1" parent="O2bcDgxOR7J80k1aE8_S-103">
          <mxGeometry y="19.243360535874324" width="30" height="40.75663946412565" as="geometry" />
        </mxCell>
        <mxCell id="O2bcDgxOR7J80k1aE8_S-105" value="" style="shape=cylinder3;whiteSpace=wrap;html=1;boundedLbl=1;backgroundOutline=1;size=15;" vertex="1" parent="O2bcDgxOR7J80k1aE8_S-103">
          <mxGeometry width="30" height="40.75663946412565" as="geometry" />
        </mxCell>
        <mxCell id="O2bcDgxOR7J80k1aE8_S-106" value="" style="group" vertex="1" connectable="0" parent="O2bcDgxOR7J80k1aE8_S-102">
          <mxGeometry y="100" width="30" height="60" as="geometry" />
        </mxCell>
        <mxCell id="O2bcDgxOR7J80k1aE8_S-107" value="" style="shape=cylinder3;whiteSpace=wrap;html=1;boundedLbl=1;backgroundOutline=1;size=15;container=1;" vertex="1" parent="O2bcDgxOR7J80k1aE8_S-106">
          <mxGeometry y="19.243360535874324" width="30" height="40.75663946412565" as="geometry" />
        </mxCell>
        <mxCell id="O2bcDgxOR7J80k1aE8_S-108" value="" style="shape=cylinder3;whiteSpace=wrap;html=1;boundedLbl=1;backgroundOutline=1;size=15;" vertex="1" parent="O2bcDgxOR7J80k1aE8_S-106">
          <mxGeometry width="30" height="40.75663946412565" as="geometry" />
        </mxCell>
        <mxCell id="O2bcDgxOR7J80k1aE8_S-109" value="" style="group" vertex="1" connectable="0" parent="O2bcDgxOR7J80k1aE8_S-102">
          <mxGeometry y="50" width="30" height="60" as="geometry" />
        </mxCell>
        <mxCell id="O2bcDgxOR7J80k1aE8_S-110" value="" style="shape=cylinder3;whiteSpace=wrap;html=1;boundedLbl=1;backgroundOutline=1;size=15;container=1;" vertex="1" parent="O2bcDgxOR7J80k1aE8_S-109">
          <mxGeometry y="19.243360535874324" width="30" height="40.75663946412565" as="geometry" />
        </mxCell>
        <mxCell id="O2bcDgxOR7J80k1aE8_S-111" value="" style="shape=cylinder3;whiteSpace=wrap;html=1;boundedLbl=1;backgroundOutline=1;size=15;" vertex="1" parent="O2bcDgxOR7J80k1aE8_S-109">
          <mxGeometry width="30" height="40.75663946412565" as="geometry" />
        </mxCell>
        <mxCell id="O2bcDgxOR7J80k1aE8_S-112" value="" style="group" vertex="1" connectable="0" parent="O2bcDgxOR7J80k1aE8_S-102">
          <mxGeometry width="30" height="60" as="geometry" />
        </mxCell>
        <mxCell id="O2bcDgxOR7J80k1aE8_S-113" value="" style="shape=cylinder3;whiteSpace=wrap;html=1;boundedLbl=1;backgroundOutline=1;size=15;container=1;" vertex="1" parent="O2bcDgxOR7J80k1aE8_S-112">
          <mxGeometry y="19.243360535874324" width="30" height="40.75663946412565" as="geometry" />
        </mxCell>
        <mxCell id="O2bcDgxOR7J80k1aE8_S-114" value="" style="shape=cylinder3;whiteSpace=wrap;html=1;boundedLbl=1;backgroundOutline=1;size=15;" vertex="1" parent="O2bcDgxOR7J80k1aE8_S-112">
          <mxGeometry width="30" height="40.75663946412565" as="geometry" />
        </mxCell>
        <mxCell id="O2bcDgxOR7J80k1aE8_S-115" value="" style="group" vertex="1" connectable="0" parent="O2bcDgxOR7J80k1aE8_S-134">
          <mxGeometry x="150" y="80" width="30" height="210" as="geometry" />
        </mxCell>
        <mxCell id="O2bcDgxOR7J80k1aE8_S-116" value="" style="group" vertex="1" connectable="0" parent="O2bcDgxOR7J80k1aE8_S-115">
          <mxGeometry y="150" width="30" height="60" as="geometry" />
        </mxCell>
        <mxCell id="O2bcDgxOR7J80k1aE8_S-117" value="" style="shape=cylinder3;whiteSpace=wrap;html=1;boundedLbl=1;backgroundOutline=1;size=15;container=1;" vertex="1" parent="O2bcDgxOR7J80k1aE8_S-116">
          <mxGeometry y="19.243360535874324" width="30" height="40.75663946412565" as="geometry" />
        </mxCell>
        <mxCell id="O2bcDgxOR7J80k1aE8_S-118" value="" style="shape=cylinder3;whiteSpace=wrap;html=1;boundedLbl=1;backgroundOutline=1;size=15;" vertex="1" parent="O2bcDgxOR7J80k1aE8_S-116">
          <mxGeometry width="30" height="40.75663946412565" as="geometry" />
        </mxCell>
        <mxCell id="O2bcDgxOR7J80k1aE8_S-119" value="" style="group" vertex="1" connectable="0" parent="O2bcDgxOR7J80k1aE8_S-115">
          <mxGeometry y="100" width="30" height="60" as="geometry" />
        </mxCell>
        <mxCell id="O2bcDgxOR7J80k1aE8_S-120" value="" style="shape=cylinder3;whiteSpace=wrap;html=1;boundedLbl=1;backgroundOutline=1;size=15;container=1;" vertex="1" parent="O2bcDgxOR7J80k1aE8_S-119">
          <mxGeometry y="19.243360535874324" width="30" height="40.75663946412565" as="geometry" />
        </mxCell>
        <mxCell id="O2bcDgxOR7J80k1aE8_S-121" value="" style="shape=cylinder3;whiteSpace=wrap;html=1;boundedLbl=1;backgroundOutline=1;size=15;" vertex="1" parent="O2bcDgxOR7J80k1aE8_S-119">
          <mxGeometry width="30" height="40.75663946412565" as="geometry" />
        </mxCell>
        <mxCell id="O2bcDgxOR7J80k1aE8_S-122" value="" style="group" vertex="1" connectable="0" parent="O2bcDgxOR7J80k1aE8_S-115">
          <mxGeometry y="50" width="30" height="60" as="geometry" />
        </mxCell>
        <mxCell id="O2bcDgxOR7J80k1aE8_S-123" value="" style="shape=cylinder3;whiteSpace=wrap;html=1;boundedLbl=1;backgroundOutline=1;size=15;container=1;" vertex="1" parent="O2bcDgxOR7J80k1aE8_S-122">
          <mxGeometry y="19.243360535874324" width="30" height="40.75663946412565" as="geometry" />
        </mxCell>
        <mxCell id="O2bcDgxOR7J80k1aE8_S-124" value="" style="shape=cylinder3;whiteSpace=wrap;html=1;boundedLbl=1;backgroundOutline=1;size=15;" vertex="1" parent="O2bcDgxOR7J80k1aE8_S-122">
          <mxGeometry width="30" height="40.75663946412565" as="geometry" />
        </mxCell>
        <mxCell id="O2bcDgxOR7J80k1aE8_S-125" value="" style="group" vertex="1" connectable="0" parent="O2bcDgxOR7J80k1aE8_S-115">
          <mxGeometry width="30" height="60" as="geometry" />
        </mxCell>
        <mxCell id="O2bcDgxOR7J80k1aE8_S-126" value="" style="shape=cylinder3;whiteSpace=wrap;html=1;boundedLbl=1;backgroundOutline=1;size=15;container=1;" vertex="1" parent="O2bcDgxOR7J80k1aE8_S-125">
          <mxGeometry y="19.243360535874324" width="30" height="40.75663946412565" as="geometry" />
        </mxCell>
        <mxCell id="O2bcDgxOR7J80k1aE8_S-127" value="" style="shape=cylinder3;whiteSpace=wrap;html=1;boundedLbl=1;backgroundOutline=1;size=15;" vertex="1" parent="O2bcDgxOR7J80k1aE8_S-125">
          <mxGeometry width="30" height="40.75663946412565" as="geometry" />
        </mxCell>
        <mxCell id="O2bcDgxOR7J80k1aE8_S-132" value="" style="endArrow=none;html=1;strokeWidth=2;rounded=0;" edge="1" parent="O2bcDgxOR7J80k1aE8_S-134">
          <mxGeometry width="50" height="50" relative="1" as="geometry">
            <mxPoint x="74.28999999999996" y="30" as="sourcePoint" />
            <mxPoint x="74.28999999999996" y="160" as="targetPoint" />
          </mxGeometry>
        </mxCell>
        <mxCell id="O2bcDgxOR7J80k1aE8_S-129" value="" style="endArrow=none;html=1;strokeWidth=2;rounded=0;" edge="1" parent="O2bcDgxOR7J80k1aE8_S-146">
          <mxGeometry width="50" height="50" relative="1" as="geometry">
            <mxPoint x="1335" y="376" as="sourcePoint" />
            <mxPoint x="1335" y="466" as="targetPoint" />
          </mxGeometry>
        </mxCell>
        <mxCell id="O2bcDgxOR7J80k1aE8_S-130" value="" style="endArrow=none;html=1;strokeWidth=2;rounded=0;" edge="1" parent="O2bcDgxOR7J80k1aE8_S-146">
          <mxGeometry width="50" height="50" relative="1" as="geometry">
            <mxPoint x="1425" y="346" as="sourcePoint" />
            <mxPoint x="1425" y="406" as="targetPoint" />
          </mxGeometry>
        </mxCell>
        <mxCell id="O2bcDgxOR7J80k1aE8_S-131" value="" style="endArrow=none;html=1;strokeWidth=2;rounded=0;" edge="1" parent="O2bcDgxOR7J80k1aE8_S-146">
          <mxGeometry width="50" height="50" relative="1" as="geometry">
            <mxPoint x="1483" y="386" as="sourcePoint" />
            <mxPoint x="1483" y="486" as="targetPoint" />
          </mxGeometry>
        </mxCell>
        <mxCell id="O2bcDgxOR7J80k1aE8_S-133" value="&lt;font style=&quot;font-size: 30px;&quot; color=&quot;#0a0a0a&quot;&gt;Ice Cube Radio In Ice Receivers&lt;br&gt;&lt;/font&gt;" style="text;strokeColor=none;align=center;fillColor=none;html=1;verticalAlign=middle;whiteSpace=wrap;rounded=0;strokeWidth=4;fontStyle=0;fontSize=19;fontColor=#4F4F4F;" vertex="1" parent="O2bcDgxOR7J80k1aE8_S-146">
          <mxGeometry x="1210" y="726" width="220" height="150" as="geometry" />
        </mxCell>
        <mxCell id="O2bcDgxOR7J80k1aE8_S-3" value="&lt;font style=&quot;font-size: 30px;&quot;&gt;IDL-pulser&lt;/font&gt;" style="whiteSpace=wrap;html=1;shadow=1;fontSize=19;fillColor=#f5f5f5;strokeColor=#0A0A0A;strokeWidth=5;rounded=1;" vertex="1" parent="O2bcDgxOR7J80k1aE8_S-146">
          <mxGeometry x="30" y="506" width="170" height="110" as="geometry" />
        </mxCell>
        <mxCell id="O2bcDgxOR7J80k1aE8_S-5" value="&lt;font style=&quot;font-size: 30px;&quot;&gt;Tee-splitter&lt;/font&gt;" style="whiteSpace=wrap;html=1;shadow=1;fontSize=19;fillColor=#f5f5f5;strokeColor=#0A0A0A;strokeWidth=5;rounded=1;" vertex="1" parent="O2bcDgxOR7J80k1aE8_S-146">
          <mxGeometry x="200" y="511" width="160" height="100" as="geometry" />
        </mxCell>
        <mxCell id="O2bcDgxOR7J80k1aE8_S-6" value="&lt;font style=&quot;font-size: 30px;&quot;&gt;Time Delay&lt;/font&gt;" style="whiteSpace=wrap;html=1;shadow=1;fontSize=19;fillColor=#f5f5f5;strokeColor=#0A0A0A;strokeWidth=5;rounded=1;" vertex="1" parent="O2bcDgxOR7J80k1aE8_S-146">
          <mxGeometry x="440" y="511" width="160" height="100" as="geometry" />
        </mxCell>
        <mxCell id="O2bcDgxOR7J80k1aE8_S-10" value="" style="group" vertex="1" connectable="0" parent="O2bcDgxOR7J80k1aE8_S-146">
          <mxGeometry x="695" y="456" width="90" height="210" as="geometry" />
        </mxCell>
        <mxCell id="O2bcDgxOR7J80k1aE8_S-11" value="" style="shape=cylinder3;whiteSpace=wrap;html=1;boundedLbl=1;backgroundOutline=1;size=15;" vertex="1" parent="O2bcDgxOR7J80k1aE8_S-10">
          <mxGeometry y="91.41176470588236" width="90" height="118.58823529411768" as="geometry" />
        </mxCell>
        <mxCell id="O2bcDgxOR7J80k1aE8_S-12" value="" style="shape=cylinder3;whiteSpace=wrap;html=1;boundedLbl=1;backgroundOutline=1;size=15;" vertex="1" parent="O2bcDgxOR7J80k1aE8_S-10">
          <mxGeometry y="1.6666666666666667" width="90" height="118.58823529411768" as="geometry" />
        </mxCell>
        <mxCell id="O2bcDgxOR7J80k1aE8_S-14" value="&lt;font style=&quot;font-size: 30px;&quot; color=&quot;#0a0a0a&quot;&gt;V-pol Antenna&lt;/font&gt;&lt;font style=&quot;font-size: 30px;&quot; color=&quot;#0a0a0a&quot;&gt;&lt;br&gt;&lt;/font&gt;" style="text;strokeColor=none;align=center;fillColor=none;html=1;verticalAlign=middle;whiteSpace=wrap;rounded=0;strokeWidth=4;fontStyle=0;fontSize=19;fontColor=#4F4F4F;" vertex="1" parent="O2bcDgxOR7J80k1aE8_S-146">
          <mxGeometry x="695" y="696" width="90" height="30" as="geometry" />
        </mxCell>
        <mxCell id="O2bcDgxOR7J80k1aE8_S-15" value="" style="shape=mxgraph.arrows2.wedgeArrowDashed2;html=1;bendable=0;startWidth=170;stepSize=15;rounded=0;opacity=40;movable=0;resizable=0;rotatable=0;deletable=0;editable=0;locked=1;connectable=0;" edge="1" parent="O2bcDgxOR7J80k1aE8_S-146">
          <mxGeometry width="100" height="100" relative="1" as="geometry">
            <mxPoint x="1260" y="546" as="sourcePoint" />
            <mxPoint x="810" y="556" as="targetPoint" />
          </mxGeometry>
        </mxCell>
        <mxCell id="O2bcDgxOR7J80k1aE8_S-16" value="&lt;div style=&quot;font-size: 33px;&quot;&gt;&lt;font style=&quot;font-size: 33px;&quot; color=&quot;#0a0a0a&quot;&gt;Searching for Ray Tracing Solutions&lt;br&gt;&lt;/font&gt;&lt;/div&gt;&lt;div style=&quot;font-size: 33px;&quot;&gt;&lt;font style=&quot;font-size: 33px;&quot; color=&quot;#0a0a0a&quot;&gt;&lt;br&gt;&lt;/font&gt;&lt;/div&gt;&lt;div style=&quot;font-size: 33px;&quot;&gt;&lt;font style=&quot;font-size: 33px;&quot; color=&quot;#0a0a0a&quot;&gt;Applying Ice Attenuation&lt;br&gt;&lt;/font&gt;&lt;/div&gt;" style="text;strokeColor=none;align=center;fillColor=none;html=1;verticalAlign=middle;whiteSpace=wrap;rounded=0;strokeWidth=4;fontStyle=0;fontSize=19;fontColor=#4F4F4F;" vertex="1" parent="O2bcDgxOR7J80k1aE8_S-146">
          <mxGeometry x="870" y="436" width="400" height="190" as="geometry" />
        </mxCell>
        <mxCell id="O2bcDgxOR7J80k1aE8_S-136" value="&lt;font style=&quot;font-size: 30px;&quot;&gt;Fiber Links&lt;/font&gt;" style="whiteSpace=wrap;html=1;shadow=1;fontSize=19;fillColor=#f5f5f5;strokeColor=#0A0A0A;strokeWidth=5;rounded=1;" vertex="1" parent="O2bcDgxOR7J80k1aE8_S-146">
          <mxGeometry x="1620" y="486" width="170" height="110" as="geometry" />
        </mxCell>
        <mxCell id="O2bcDgxOR7J80k1aE8_S-137" value="" style="html=1;shadow=0;dashed=0;align=center;verticalAlign=middle;shape=mxgraph.arrows2.arrow;dy=0.6;dx=40;notch=0;" vertex="1" parent="O2bcDgxOR7J80k1aE8_S-146">
          <mxGeometry x="1550" y="481" width="60" height="120" as="geometry" />
        </mxCell>
        <mxCell id="O2bcDgxOR7J80k1aE8_S-138" value="&lt;font style=&quot;font-size: 30px;&quot;&gt;LNA&lt;/font&gt;" style="whiteSpace=wrap;html=1;shadow=1;fontSize=19;fillColor=#f5f5f5;strokeColor=#0A0A0A;strokeWidth=5;rounded=1;" vertex="1" parent="O2bcDgxOR7J80k1aE8_S-146">
          <mxGeometry x="1790" y="486" width="100" height="110" as="geometry" />
        </mxCell>
        <mxCell id="O2bcDgxOR7J80k1aE8_S-139" value="&lt;font style=&quot;font-size: 33px;&quot;&gt;DAQ&lt;/font&gt;" style="whiteSpace=wrap;html=1;shadow=1;fontSize=19;fillColor=#f5f5f5;strokeColor=#0A0A0A;strokeWidth=5;rounded=1;" vertex="1" parent="O2bcDgxOR7J80k1aE8_S-146">
          <mxGeometry x="1890" y="456" width="150" height="170" as="geometry" />
        </mxCell>
        <mxCell id="O2bcDgxOR7J80k1aE8_S-140" value="" style="endArrow=classic;html=1;rounded=0;exitX=1;exitY=0.75;exitDx=0;exitDy=0;entryX=0;entryY=0.75;entryDx=0;entryDy=0;strokeWidth=5;endFill=1;" edge="1" parent="O2bcDgxOR7J80k1aE8_S-146" source="O2bcDgxOR7J80k1aE8_S-5" target="O2bcDgxOR7J80k1aE8_S-6">
          <mxGeometry width="50" height="50" relative="1" as="geometry">
            <mxPoint x="990" y="466" as="sourcePoint" />
            <mxPoint x="1040" y="416" as="targetPoint" />
          </mxGeometry>
        </mxCell>
        <mxCell id="O2bcDgxOR7J80k1aE8_S-141" value="" style="endArrow=classic;html=1;rounded=0;exitX=1.02;exitY=0.323;exitDx=0;exitDy=0;strokeWidth=5;endFill=1;exitPerimeter=0;startArrow=none;startFill=0;dashed=1;entryX=0.501;entryY=1.055;entryDx=0;entryDy=0;entryPerimeter=0;" edge="1" parent="O2bcDgxOR7J80k1aE8_S-146" source="O2bcDgxOR7J80k1aE8_S-5" target="O2bcDgxOR7J80k1aE8_S-142">
          <mxGeometry width="50" height="50" relative="1" as="geometry">
            <mxPoint x="370" y="596" as="sourcePoint" />
            <mxPoint x="410" y="466" as="targetPoint" />
            <Array as="points">
              <mxPoint x="410" y="543" />
            </Array>
          </mxGeometry>
        </mxCell>
        <mxCell id="O2bcDgxOR7J80k1aE8_S-142" value="&lt;font style=&quot;font-size: 33px;&quot;&gt;To Surface Trigger Chain&lt;/font&gt;" style="text;strokeColor=none;align=center;fillColor=none;html=1;verticalAlign=middle;whiteSpace=wrap;rounded=0;" vertex="1" parent="O2bcDgxOR7J80k1aE8_S-146">
          <mxGeometry x="170" y="266" width="480" height="90" as="geometry" />
        </mxCell>
        <mxCell id="O2bcDgxOR7J80k1aE8_S-143" value="" style="endArrow=classic;html=1;rounded=0;exitX=1;exitY=0.5;exitDx=0;exitDy=0;strokeWidth=5;endFill=1;" edge="1" parent="O2bcDgxOR7J80k1aE8_S-146" source="O2bcDgxOR7J80k1aE8_S-6">
          <mxGeometry width="50" height="50" relative="1" as="geometry">
            <mxPoint x="420" y="726" as="sourcePoint" />
            <mxPoint x="740" y="476" as="targetPoint" />
            <Array as="points">
              <mxPoint x="640" y="561" />
              <mxPoint x="640" y="436" />
              <mxPoint x="740" y="436" />
            </Array>
          </mxGeometry>
        </mxCell>
      </root>
    </mxGraphModel>
  </diagram>
</mxfile>
